<svg t="1719303531356" class="icon" viewBox="0 0 1024 1024" version="1.1" xmlns="http://www.w3.org/2000/svg" p-id="4313" width="16" height="16"><path d="M234.88 358.357333a172.074667 172.074667 0 0 0 45.226667 165.930667c66.389333 66.389333 175.018667 66.389333 241.365333 0s66.389333-174.976 0-241.365333a172.074667 172.074667 0 0 0-165.930667-45.226667l75.434667 75.392c18.090667 18.090667 18.090667 42.24 0 60.330667l-60.330667 60.373333c-18.133333 18.090667-42.24 18.090667-60.373333 0L234.88 358.357333z" fill="#1296db" p-id="4314"></path><path d="M805.077333 916.48c-30.165333 0-54.314667-12.074667-75.434666-33.194667l-211.2-211.2c-111.616 51.328-244.352 27.178667-331.861334-60.330666-90.496-90.453333-111.616-226.261333-57.301333-340.906667 2.986667-9.045333 18.090667-18.090667 30.165333-18.090667 15.061333-2.986667 27.136 2.986667 36.181334 12.074667L337.493333 406.613333l60.330667-60.330666L256 204.501333c-9.045333-9.088-12.074667-24.149333-12.074667-36.224 2.986667-15.104 12.074667-30.165333 27.136-33.194666 114.645333-54.314667 250.453333-33.194667 340.906667 57.344 87.509333 87.466667 111.658667 220.245333 60.373333 331.861333l211.2 211.2c42.24 42.24 42.24 108.586667 0 150.826667-21.162667 21.12-48.298667 30.165333-78.464 30.165333z m-274.56-334.890667c9.045333-2.986667 21.12 3.029333 30.165334 12.074667l232.32 232.32c6.058667 6.016 12.074667 6.016 15.104 9.045333 6.016 0 9.045333-2.986667 15.061333-9.045333 3.029333-2.986667 6.058667-12.074667 9.045333-15.104 0-6.016-2.986667-9.045333-9.045333-15.061333l-232.277333-232.32c-15.104-15.061333-18.133333-36.181333-6.058667-54.314667 45.226667-81.450667 33.194667-190.037333-33.194667-256.426667A216.234667 216.234667 0 0 0 370.645333 192.426667l120.661334 120.661333c9.045333 9.045333 12.074667 18.090667 12.074666 30.165333s-6.058667 24.149333-12.074666 30.165334l-120.661334 120.704c-18.133333 18.090667-42.24 18.090667-60.373333 0L189.610667 373.418667a216.234667 216.234667 0 0 0 60.330666 181.034666c69.418667 69.376 174.976 84.48 256.426667 33.194667 6.058667-6.058667 12.074667-6.058667 24.149333-6.058667z" fill="#1296db" p-id="4315"></path></svg>